<svg width="40" height="40" viewBox="0 0 40 40" fill="none" xmlns="http://www.w3.org/2000/svg">
<path d="M31.5003 35L22.3753 25.875L25.8753 22.375L35.0003 31.5L31.5003 35ZM8.50033 35L5.00033 31.5L16.5003 20L13.667 17.1666L12.5003 18.3333L10.3753 16.2083V19.625L9.20866 20.7916L4.16699 15.75L5.33366 14.5833H8.75033L6.66699 12.5L12.5837 6.58331C13.1392 6.02776 13.7364 5.62498 14.3753 5.37498C15.0142 5.12498 15.667 4.99998 16.3337 4.99998C17.0003 4.99998 17.6531 5.12498 18.292 5.37498C18.9309 5.62498 19.5281 6.02776 20.0837 6.58331L16.2503 10.4166L18.3337 12.5L17.167 13.6666L20.0003 16.5L23.7503 12.75C23.6392 12.4444 23.5492 12.125 23.4803 11.7916C23.4114 11.4583 23.3764 11.125 23.3753 10.7916C23.3753 9.15276 23.9381 7.77054 25.0637 6.64498C26.1892 5.51943 27.5709 4.9572 29.2087 4.95831C29.6253 4.95831 30.0214 4.99998 30.397 5.08331C30.7725 5.16665 31.1542 5.29165 31.542 5.45831L27.417 9.58331L30.417 12.5833L34.542 8.45831C34.7364 8.8472 34.8687 9.22887 34.9387 9.60331C35.0087 9.97776 35.0431 10.3739 35.042 10.7916C35.042 12.4305 34.4798 13.8128 33.3553 14.9383C32.2309 16.0639 30.8487 16.6261 29.2087 16.625C28.8753 16.625 28.542 16.5972 28.2087 16.5416C27.8753 16.4861 27.5559 16.3889 27.2503 16.25L8.50033 35Z" fill="#208900"/>
</svg>
