<svg width="41" height="40" viewBox="0 0 41 40" fill="none" xmlns="http://www.w3.org/2000/svg">
<path d="M21.3596 37.0313L21.2971 37.0211C21.3058 37.0279 21.3161 37.0323 21.327 37.0341C21.3379 37.0359 21.3491 37.0349 21.3596 37.0313ZM35.5705 14.6703C35.5527 14.576 35.5039 14.4904 35.4318 14.4271C35.3598 14.3637 35.2687 14.3262 35.1729 14.3206C35.0771 14.3149 34.9822 14.3414 34.9032 14.3959C34.8242 14.4503 34.7657 14.5296 34.7369 14.6211C34.7093 14.708 34.6549 14.7839 34.5815 14.8379C34.5081 14.892 34.4195 14.9214 34.3283 14.9219H33.1197C33.0415 14.9219 32.9648 14.9005 32.8978 14.8602L31.1494 13.8117C31.0824 13.7713 31.0057 13.75 30.9275 13.75H28.1306C28.0455 13.75 27.9623 13.7753 27.8916 13.8227L24.4424 16.1219C24.3827 16.1616 24.334 16.2155 24.3004 16.2788C24.2668 16.3421 24.2496 16.4127 24.2502 16.4844V19.7453C24.2501 19.8235 24.2713 19.9002 24.3115 19.9672C24.3516 20.0342 24.4093 20.089 24.4783 20.1258L29.001 22.5398C29.0689 22.5764 29.1259 22.6304 29.166 22.6963C29.2061 22.7623 29.2279 22.8377 29.2291 22.9148L29.2502 24.75C29.2514 24.826 29.2726 24.9003 29.3117 24.9654C29.3508 25.0306 29.4064 25.0843 29.4728 25.1211L31.29 26.1266C31.3573 26.164 31.4135 26.2186 31.4526 26.285C31.4918 26.3513 31.5125 26.4269 31.5127 26.5039V30.3008C31.5127 30.3838 31.5366 30.465 31.5817 30.5347C31.6267 30.6044 31.6908 30.6596 31.7665 30.6938C31.8421 30.7279 31.926 30.7395 32.008 30.7272C32.0901 30.7148 32.1668 30.6791 32.2291 30.6242C32.9619 29.9789 34.0127 29.0367 34.1525 28.8211C34.3838 28.4633 34.6007 28.0969 34.8033 27.7219C35.2229 26.9449 35.5782 26.1349 35.8658 25.3C36.8564 22.432 36.0736 17.2766 35.5705 14.6703ZM22.8752 23.6562L18.0838 20.0625C18.0297 20.0219 17.9639 20 17.8963 20H15.6228C15.5839 20 15.5454 19.9924 15.5095 19.9775C15.4736 19.9626 15.4409 19.9408 15.4135 19.9133L14.3416 18.8414C14.3125 18.8124 14.2781 18.7894 14.2401 18.7737C14.2022 18.758 14.1615 18.75 14.1205 18.75H9.96502C9.90646 18.75 9.84921 18.7326 9.80051 18.7001C9.75182 18.6676 9.71387 18.6213 9.69146 18.5672C9.66905 18.5131 9.66318 18.4536 9.67461 18.3961C9.68603 18.3387 9.71423 18.2859 9.75565 18.2445L10.4135 17.5867C10.4409 17.5592 10.4736 17.5374 10.5095 17.5225C10.5454 17.5076 10.5839 17.5 10.6228 17.5H13.1517C13.2879 17.5 13.4204 17.4555 13.529 17.3733C13.6376 17.2911 13.7164 17.1756 13.7533 17.0445L14.2916 15.1305C14.3031 15.0893 14.3228 15.051 14.3497 15.0178C14.3766 14.9846 14.41 14.9573 14.4478 14.9375L16.5939 13.8328C16.6422 13.8079 16.6827 13.7701 16.711 13.7236C16.7392 13.6772 16.7541 13.6239 16.7541 13.5695V12.593C16.7541 12.5324 16.7726 12.4732 16.8072 12.4234L17.9478 10.7812C17.982 10.7319 18.0306 10.6943 18.0869 10.6734L19.683 10.0742C19.7395 10.0531 19.7881 10.0152 19.8225 9.9656C19.8568 9.91604 19.8752 9.85717 19.8752 9.79687V8.90625C19.8752 8.85741 19.8631 8.80933 19.8401 8.76627C19.8171 8.72321 19.7838 8.68649 19.7431 8.65937L18.1431 7.59531C18.0992 7.56639 18.0484 7.54957 17.9958 7.54655C17.9433 7.54353 17.8909 7.55442 17.8439 7.57812L15.6658 8.66718C15.616 8.69179 15.5602 8.70183 15.5049 8.69617C15.4497 8.6905 15.3971 8.66935 15.3533 8.63515L14.3205 7.81875C14.2852 7.7904 14.2569 7.75438 14.2377 7.71343C14.2185 7.67248 14.209 7.62768 14.2097 7.58246C14.2105 7.53724 14.2215 7.49279 14.2421 7.4525C14.2626 7.41221 14.2921 7.37715 14.3283 7.35L15.1674 6.73203C15.2053 6.70417 15.2361 6.66762 15.2571 6.62545C15.2781 6.58327 15.2887 6.53669 15.288 6.48959C15.2873 6.44249 15.2754 6.39623 15.2531 6.35469C15.2309 6.31315 15.1991 6.27752 15.1603 6.25078L13.8533 5.33906C13.8081 5.3072 13.7548 5.2887 13.6995 5.28566C13.6443 5.28262 13.5893 5.29517 13.5408 5.32187C13.0681 5.58047 11.6814 6.34609 11.1892 6.69062C8.91202 8.28765 7.07935 10.4387 5.86424 12.9406C5.72205 13.2344 5.54627 13.5336 5.52908 13.8562C5.5119 14.1789 5.25877 14.8992 5.1533 15.1906C5.13908 15.23 5.13339 15.272 5.13662 15.3137C5.13986 15.3555 5.15193 15.3961 5.17205 15.4328L7.96033 20.5562C7.98543 20.6028 8.02269 20.6417 8.06815 20.6687L11.0017 22.4297C11.0398 22.4524 11.0723 22.4833 11.0967 22.5202C11.1212 22.5571 11.1371 22.5991 11.1431 22.643L11.7306 26.9039C11.7364 26.9447 11.7505 26.9839 11.7722 27.019C11.7938 27.0541 11.8225 27.0844 11.8564 27.1078L14.1455 28.6813C14.2118 28.7268 14.258 28.7962 14.2744 28.875L15.4885 34.6406C15.4953 34.6745 15.5082 34.7068 15.5267 34.7359C15.6408 34.9203 16.0955 35.5953 16.6439 35.6953C16.5931 35.7094 16.5478 35.7414 16.4971 35.7563C16.6288 35.7795 16.7592 35.8097 16.8877 35.8469C17.0439 35.8891 17.2002 35.925 17.3564 35.9586C17.601 36.007 17.6252 36.0445 17.7424 35.8273C17.8986 35.5367 18.0775 35.4367 18.2111 35.4008C18.2662 35.3881 18.3167 35.3601 18.3566 35.32C18.3966 35.2799 18.4244 35.2294 18.4369 35.1742L19.2236 31.5273C19.2402 31.4509 19.2848 31.3834 19.3486 31.3383L22.8642 28.8461C22.9051 28.8172 22.9384 28.7789 22.9614 28.7344C22.9844 28.69 22.9963 28.6407 22.9963 28.5906V23.9062C22.9967 23.8581 22.986 23.8104 22.965 23.7671C22.944 23.7237 22.9133 23.6858 22.8752 23.6562Z" fill="#208900"/>
<path d="M20.9689 3.75C20.9689 3.75 20.6838 3.76641 20.626 3.76797C20.2025 3.78047 19.7801 3.80964 19.3588 3.85547C17.8228 4.02215 16.3185 4.40756 14.8916 5C15.0814 5.13125 14.7549 5.25156 14.7549 5.25156L15.2658 6.25H18.0002L19.8752 7.1875L21.5158 6.25L20.9689 3.75ZM28.1744 9.37969L29.433 8.28594C29.4724 8.25174 29.5026 8.20823 29.5209 8.15937C29.5391 8.11051 29.5449 8.05785 29.5376 8.0062C29.5303 7.95455 29.5102 7.90554 29.4791 7.86366C29.448 7.82178 29.4069 7.78834 29.3596 7.76641L27.89 7.08438C27.8154 7.04955 27.73 7.04561 27.6525 7.07341C27.5749 7.1012 27.5115 7.15849 27.476 7.23281L26.8705 8.49922C26.8375 8.56845 26.8312 8.64739 26.8527 8.721C26.8741 8.79461 26.9219 8.85776 26.9869 8.89844L27.8041 9.40938C27.8609 9.4447 27.9275 9.46088 27.9941 9.45553C28.0608 9.45019 28.124 9.4236 28.1744 9.37969ZM34.0658 10.9898L33.6103 10.2867C33.6033 10.2758 33.5971 10.2648 33.5908 10.2531C33.5088 10.0852 32.8299 8.71406 32.2627 8.18203C31.8369 7.77969 31.7158 7.89531 31.6822 7.98437C31.663 8.03363 31.6309 8.07681 31.5892 8.10938L29.3361 9.93047C29.2806 9.97536 29.2114 9.9999 29.14 10H27.9736C27.9326 9.99997 27.8919 10.008 27.854 10.0237C27.816 10.0394 27.7816 10.0624 27.7525 10.0914L26.815 11.0289C26.786 11.0579 26.7629 11.0924 26.7472 11.1303C26.7315 11.1683 26.7234 11.2089 26.7234 11.25C26.7234 11.2911 26.7315 11.3317 26.7472 11.3697C26.7629 11.4076 26.786 11.4421 26.815 11.4711L27.7525 12.4086C27.7816 12.4376 27.816 12.4606 27.854 12.4763C27.8919 12.492 27.9326 12.5 27.9736 12.5H33.8463C33.8885 12.5 33.9302 12.4915 33.969 12.475C34.0078 12.4585 34.0429 12.4343 34.0721 12.4038C34.1013 12.3734 34.124 12.3374 34.1389 12.2979C34.1538 12.2584 34.1606 12.2164 34.1588 12.1742L34.1158 11.1469C34.1135 11.091 34.0962 11.0368 34.0658 10.9898Z" fill="#208900"/>
<path d="M20.5 5.625C23.8257 5.62472 27.0487 6.77762 29.6197 8.88724C32.1907 10.9969 33.9507 13.9327 34.5998 17.1945C35.2488 20.4563 34.7468 23.8422 33.1793 26.7754C31.6118 29.7086 29.0757 32.0075 26.0032 33.2804C22.9307 34.5533 19.5119 34.7215 16.3293 33.7563C13.1467 32.7911 10.3972 30.7522 8.54934 27.9871C6.70147 25.222 5.86955 21.9016 6.19533 18.5919C6.5211 15.2821 7.98442 12.1877 10.3359 9.83594C11.6675 8.49678 13.2514 7.43507 14.9961 6.71225C16.7408 5.98944 18.6115 5.61989 20.5 5.625ZM20.5 2.5C10.8359 2.5 3 10.3359 3 20C3 29.6641 10.8359 37.5 20.5 37.5C30.1641 37.5 38 29.6641 38 20C38 10.3359 30.1641 2.5 20.5 2.5Z" fill="#208900"/>
</svg>
